<?xml version="1.0" encoding="utf-8"?>
<!-- Generator: Adobe Illustrator 16.0.0, SVG Export Plug-In . SVG Version: 6.00 Build 0)  -->
<!DOCTYPE svg PUBLIC "-//W3C//DTD SVG 1.1//EN" "http://www.w3.org/Graphics/SVG/1.1/DTD/svg11.dtd">
<svg version="1.1" id="图层_1" xmlns="http://www.w3.org/2000/svg" xmlns:xlink="http://www.w3.org/1999/xlink" x="0px" y="0px"
	 width="66px" height="66px" viewBox="0 0 66 66" enable-background="new 0 0 66 66" xml:space="preserve">
<path d="M56.115,20.913v-3.874c0.034-1.017-0.334-2.005-1.023-2.748c-0.688-0.742-1.641-1.178-2.648-1.211H30.328V9.459
	c0.034-1.017-0.334-2.005-1.023-2.748c-0.688-0.742-1.642-1.178-2.649-1.211H8.17C7.164,5.533,6.21,5.969,5.521,6.711
	C4.833,7.454,4.465,8.442,4.499,9.459v47.798l6.551-32.385c-0.034-1.017,0.334-2.005,1.023-2.747
	c0.689-0.743,1.642-1.179,2.649-1.212H56.115z M53.361,60.5h-45.9l6.259-32.68c-0.034-1.017,0.334-2.006,1.023-2.748
	c0.688-0.742,1.641-1.178,2.648-1.211h42.437c1.008,0.033,1.96,0.469,2.648,1.211c0.689,0.742,1.058,1.731,1.023,2.748L56.95,56.541
	C57.021,58.627,55.426,60.387,53.361,60.5L53.361,60.5z M53.361,60.5"/>
</svg>
