<?xml version="1.0" encoding="utf-8"?>
<!-- Generator: Adobe Illustrator 16.0.0, SVG Export Plug-In . SVG Version: 6.00 Build 0)  -->
<!DOCTYPE svg PUBLIC "-//W3C//DTD SVG 1.1//EN" "http://www.w3.org/Graphics/SVG/1.1/DTD/svg11.dtd">
<svg version="1.1" id="图层_1" xmlns="http://www.w3.org/2000/svg" xmlns:xlink="http://www.w3.org/1999/xlink" x="0px" y="0px"
	 width="66px" height="66px" viewBox="0 0 66 66" enable-background="new 0 0 66 66" xml:space="preserve">
<g>
	<g>
		<path d="M52.17,37.007c-9.387,0.006-14.203,0-18.301,0c-2.77,0-5.226-1.896-5.226-5.234V13.465c0-8.946-7.242-5.418-7.309-5.394
			C10.287,11.961,2.5,22.637,2.5,35.073C2.5,50.775,15.201,63.5,30.867,63.5c12.407,0,22.951-7.982,26.804-19.106
			C57.629,44.504,60.839,37.007,52.17,37.007z M63.975,26.601C61.322,14.213,51.74,4.347,39.339,1.893
			c-7.021-1.393-6.261,2.712-6.261,5.7V26.41c0,3.589,3.676,6.442,6.304,6.442h18.913C61.365,32.853,65.5,33.705,63.975,26.601z"/>
	</g>
</g>
</svg>
